<svg viewBox="0 0 37 32" fill="none" xmlns="http://www.w3.org/2000/svg">
<path d="M2.44483 0H34.4532C35.1016 0 35.7235 0.257579 36.182 0.716073C36.6404 1.17457 36.898 1.79642 36.898 2.44483V23.2126C36.898 23.861 36.6404 24.4829 36.182 24.9413C35.7235 25.3998 35.1016 25.6574 34.4532 25.6574H15.8788C15.2606 27.7767 13.7071 30.698 9.80166 32L10.9046 25.6574H2.44483C1.79642 25.6574 1.17457 25.3998 0.716073 24.9413C0.257579 24.4829 8.98189e-07 23.861 8.98189e-07 23.2126V2.44692C-0.000274447 2.12569 0.0627592 1.80755 0.1855 1.51068C0.308241 1.21382 0.488282 0.944059 0.715333 0.716813C0.942383 0.489568 1.21199 0.309297 1.50875 0.186302C1.80551 0.0633066 2.12359 -1.18005e-07 2.44483 0Z" fill="#25D366"/>
<path d="M26.0102 3.99146H10.8893V5.88166H26.0102V3.99146Z" fill="#075E54"/>
<path d="M16.6458 7.27881H10.9752V9.16901H16.6458V7.27881Z" fill="#075E54"/>
<path d="M22.243 10.5659H11.061V12.4561H22.243V10.5659Z" fill="#075E54"/>
<path d="M24.8604 13.853H11.147V15.7432H24.8604V13.853Z" fill="#075E54"/>
<path d="M18.4633 17.1404H11.2329V19.0306H18.4633V17.1404Z" fill="#075E54"/> 
</svg>
