<svg viewBox="0 0 485 385" fill="none" xmlns="http://www.w3.org/2000/svg">
<g clip-path="url(#clip0)">
<path d="M103.364 71.6021V32.906H91.0278L87.2416 10.9705H92.3906V0H64.3541V10.9705H69.5031L65.7169 32.906H53.3802V72.5195H53.6825V88.0606H131.406V71.6021H103.364Z" fill="url(#paint0_linear)"/>
<path d="M92.3907 40.9979H65.8104L71.5914 7.48767H86.6152L92.3907 40.9979Z" fill="#341F97"/>
<path d="M138.501 335.059H46.1816V382.347H138.501V335.059Z" fill="url(#paint1_linear)"/>
<path d="M134.006 335.059H50.7866V376.655H134.006V335.059Z" fill="#6C63FF"/>
<path d="M121.74 85.7698H63.4915V335.059H121.74V85.7698Z" stroke="url(#paint2_linear)" stroke-width="5" stroke-miterlimit="10"/>
<path d="M118.976 85.7698H66.3874V335.059H118.976V85.7698Z" stroke="#341F97" stroke-width="5" stroke-miterlimit="10"/>
<path d="M118.976 168.963H66.3874L118.691 126.79" stroke="#341F97" stroke-width="5" stroke-linejoin="round"/>
<path d="M66.3874 210.845H118.976L66.6786 168.963" stroke="#341F97" stroke-width="5" stroke-linejoin="round"/>
<path d="M118.976 252.733H66.3874L118.691 210.56" stroke="#341F97" stroke-width="5" stroke-linejoin="round"/>
<path d="M66.3874 294.616H118.976L66.0961 252.733" stroke="#341F97" stroke-width="5" stroke-linejoin="round"/>
<path d="M66.6786 85.7698L118.976 127.075H66.3874" stroke="#341F97" stroke-width="5" stroke-linecap="round" stroke-linejoin="round"/>
<path d="M66.6786 334.768L118.691 294.33" stroke="#341F97" stroke-width="5" stroke-miterlimit="10"/>
<path d="M129.384 70.1738H55.6992V85.7698H129.384V70.1738Z" fill="#341F97"/>
<path d="M102.799 33.4883H55.408V71.0418H102.799V33.4883Z" fill="#341F97"/>
<path d="M102.799 33.4883H86.6152V48.5075H102.799V33.4883Z" fill="#64FFDA"/> 
<path d="M54.5397 60.3514H1.37378V84.0393H54.5397V60.3514Z" stroke="#341F97" stroke-width="5" stroke-miterlimit="10"/>
<path d="M342.916 60.3514H129.67V84.0393H342.916V60.3514Z" stroke="#341F97" stroke-width="5" stroke-miterlimit="10"/>
<path d="M27.9595 60.3514V84.0339L54.5398 60.3514" stroke="#341F97" stroke-width="5" stroke-linejoin="round"/>
<path d="M236.293 84.0339V60.3514L215.197 84.0339" stroke="#341F97" stroke-width="5" stroke-linejoin="round"/>
<path d="M215.197 60.6371V83.7482L191.502 60.9282" stroke="#341F97" stroke-width="5" stroke-linejoin="round"/>
<path d="M191.216 84.6162V60.3514L167.23 84.0339" stroke="#341F97" stroke-width="5" stroke-linejoin="round"/>
<path d="M143.249 85.1929V61.505L167.23 83.7481V61.2194" stroke="#341F97" stroke-width="5" stroke-linejoin="round"/>
<path d="M264.319 60.6371V83.7482L236.579 60.3514" stroke="#341F97" stroke-width="5" stroke-linejoin="round"/>
<path d="M292.35 84.6161V60.9282L264.319 84.0338" stroke="#341F97" stroke-width="5" stroke-linejoin="round"/>
<path d="M320.375 61.2194V83.7482L292.635 60.9282" stroke="#341F97" stroke-width="5" stroke-linejoin="round"/>
<path d="M305.28 94.488C313.627 94.488 320.392 90.4557 320.392 85.4786H290.168C290.168 90.4557 296.933 94.488 305.28 94.488Z" fill="url(#paint3_linear)"/>
<path d="M305.637 92.4169C312.979 92.4169 318.93 89.3131 318.93 85.4841H292.344C292.344 89.3131 298.295 92.4169 305.637 92.4169Z" fill="#341F97"/>
<path d="M92.3962 2.29077H65.8104V12.6899H92.3962V2.29077Z" fill="#341F97"/>
<path d="M1.37378 60.3514L27.9595 84.0339" stroke="#341F97" stroke-width="5" stroke-linejoin="round"/>
<path d="M67.5414 7.48767L1.37378 62.6258" stroke="url(#paint4_linear)" stroke-width="3" stroke-linejoin="round"/>
<path d="M67.5414 7.48767L1.37378 60.3515" stroke="#341F97" stroke-width="3" stroke-linejoin="round"/>
<path d="M90.0826 7.48767L203.35 62.6258" stroke="url(#paint5_linear)" stroke-width="3" stroke-linejoin="round"/>
<path d="M90.0826 7.48767L203.35 60.3515" stroke="#341F97" stroke-width="3" stroke-miterlimit="10"/>
<path d="M342.916 59.7747L320.375 84.0339" stroke="#341F97" stroke-width="5" stroke-linejoin="round"/>
<path d="M88.6374 7.2019L342.916 62.6257" stroke="url(#paint6_linear)" stroke-width="3" stroke-linejoin="round"/>
<path d="M88.6374 7.2019L342.916 59.7746" stroke="#341F97" stroke-width="3" stroke-linejoin="round"/>
<path d="M313.446 130.377C313.446 131.977 312.971 133.542 312.082 134.873C311.192 136.203 309.928 137.24 308.449 137.853C306.97 138.465 305.342 138.626 303.772 138.313C302.202 138.001 300.76 137.23 299.628 136.099C298.496 134.967 297.725 133.525 297.412 131.956C297.1 130.386 297.26 128.759 297.873 127.28C298.486 125.802 299.523 124.538 300.854 123.649C302.185 122.76 303.75 122.285 305.351 122.285V86.7971" stroke="url(#paint7_linear)" stroke-width="3" stroke-linecap="round" stroke-linejoin="round"/>
<path d="M312.863 129.102C312.863 130.588 312.423 132.04 311.597 133.274C310.772 134.509 309.599 135.472 308.226 136.04C306.853 136.609 305.343 136.757 303.886 136.468C302.429 136.178 301.09 135.463 300.039 134.412C298.989 133.362 298.273 132.024 297.984 130.567C297.694 129.111 297.842 127.601 298.411 126.229C298.98 124.856 299.942 123.684 301.178 122.858C302.413 122.033 303.865 121.593 305.351 121.593V88.6758" stroke="#341F97" stroke-width="3" stroke-linecap="round" stroke-linejoin="round"/>
<path d="M134.006 335.059H50.7866V376.655H134.006V335.059Z" fill="#341F97"/>
<path opacity="0.2" d="M485 186.943H216.395V385H485V186.943Z" fill="#6C63FF"/>
<path d="M195.283 161.712V172.523V375.958H464.838V172.523V161.712H195.283Z" fill="url(#paint8_linear)"/>
<path d="M461.981 175.044H199.091V372.151H461.981V175.044Z" fill="white"/>
<path d="M461.981 164.568H199.091V175.044H461.981V164.568Z" fill="#F5F5F5"/>
<path d="M206.713 172.182C208.115 172.182 209.251 171.046 209.251 169.644C209.251 168.243 208.115 167.106 206.713 167.106C205.31 167.106 204.174 168.243 204.174 169.644C204.174 171.046 205.31 172.182 206.713 172.182Z" fill="#FF5252"/>
<path d="M213.697 172.182C215.099 172.182 216.236 171.046 216.236 169.644C216.236 168.243 215.099 167.106 213.697 167.106C212.295 167.106 211.158 168.243 211.158 169.644C211.158 171.046 212.295 172.182 213.697 172.182Z" fill="#FFFF00"/>
<path d="M220.681 172.182C222.083 172.182 223.22 171.046 223.22 169.644C223.22 168.243 222.083 167.106 220.681 167.106C219.279 167.106 218.143 168.243 218.143 169.644C218.143 171.046 219.279 172.182 220.681 172.182Z" fill="#69F0AE"/>
<path d="M273.254 261.078H218.928V328.67H273.254V261.078Z" fill="url(#paint9_linear)"/>
<path d="M270.935 262.237H221.236V324.632H270.935V262.237Z" fill="white"/>
<path d="M226.242 264.643C223.638 264.643 223.638 268.686 226.242 268.686C228.847 268.686 228.853 264.643 226.242 264.643Z" fill="#64FFDA"/>
<path d="M265.538 264.643C262.934 264.643 262.934 268.686 265.538 268.686C268.143 268.686 268.149 264.643 265.538 264.643Z" fill="#64FFDA"/>
<path d="M256.488 287.079L259.378 286.502C259.378 286.502 256.95 289.216 256.488 289.391C256.445 289.967 256.445 290.546 256.488 291.122C250.938 314.925 230.485 304.411 230.485 304.411C237.942 304.586 238.574 301.521 238.574 301.521C234.238 300.884 233.375 298.055 233.375 298.055C233.764 298.26 234.215 298.315 234.642 298.209C235.069 298.102 235.442 297.842 235.689 297.478C231.007 296.264 231.644 291.699 231.644 291.699C232.478 292.301 233.452 292.679 234.474 292.797C233.952 292.16 229.562 286.903 232.221 284.189C232.221 284.189 235.458 289.968 243.953 290.485L244.53 290.369C244.432 289.954 244.394 289.527 244.415 289.1C244.415 287.498 245.052 285.961 246.186 284.827C247.319 283.694 248.857 283.057 250.46 283.057C254.504 283.057 255.372 285.37 255.372 285.37L258.263 283.64C258.219 283.612 257.933 286.502 256.488 287.079Z" fill="url(#paint10_linear)"/>
<path d="M257.642 285.343L260.532 284.766C260.532 284.766 258.104 287.48 257.642 287.655C257.599 288.231 257.599 288.81 257.642 289.386C252.097 313.195 231.644 302.68 231.644 302.68C239.101 302.856 239.733 299.791 239.733 299.791C235.397 299.153 234.535 296.324 234.535 296.324C234.924 296.53 235.375 296.585 235.802 296.478C236.229 296.372 236.601 296.111 236.848 295.747C232.166 294.533 232.804 289.968 232.804 289.968C233.638 290.57 234.612 290.949 235.634 291.067C235.112 290.43 230.721 285.172 233.381 282.459C233.381 282.459 236.617 288.238 245.113 288.754L245.69 288.639C245.592 288.223 245.553 287.796 245.575 287.37C245.575 285.767 246.211 284.23 247.345 283.097C248.479 281.964 250.016 281.327 251.619 281.327C255.664 281.327 256.532 283.64 256.532 283.64L259.422 281.909C259.378 281.882 259.087 284.793 257.642 285.343Z" fill="#00ACED"/>
<path d="M442 287.655H387.675V355.247H442V287.655Z" fill="url(#paint11_linear)"/>
<path d="M440.841 289.968H391.142V352.363H440.841V289.968Z" fill="white"/>
<path d="M396.148 292.374C393.544 292.374 393.544 296.417 396.148 296.417C398.753 296.417 398.753 292.374 396.148 292.374Z" fill="#64FFDA"/>
<path d="M435.444 292.374C432.84 292.374 432.84 296.417 435.444 296.417C438.049 296.417 438.049 292.374 435.444 292.374Z" fill="#64FFDA"/>
<path d="M421.091 335.179L424.262 324.308C424.262 324.308 424.316 321.858 422.118 321.336C419.92 320.814 419.102 320.94 417.766 321.814L414.436 333.24L408.886 331.625L413.898 314.431L419.448 316.046L418.706 318.595C418.706 318.595 421.574 315.579 425.207 316.947C428.581 318.172 430.521 321.023 429.762 325.676L429.872 325.709L426.635 336.8L421.091 335.179ZM407.902 310.272C407.244 310.08 406.657 309.698 406.216 309.173C405.775 308.648 405.499 308.003 405.424 307.322C405.35 306.64 405.479 305.952 405.795 305.343C406.112 304.735 406.602 304.234 407.203 303.905C407.805 303.575 408.491 303.431 409.174 303.491C409.857 303.55 410.507 303.812 411.042 304.241C411.577 304.67 411.973 305.249 412.179 305.903C412.385 306.557 412.392 307.257 412.2 307.915C411.94 308.799 411.339 309.544 410.531 309.986C409.722 310.428 408.771 310.531 407.886 310.272H407.902ZM405.017 330.494L399.467 328.878L404.479 311.684L410.029 313.299L405.017 330.494Z" fill="url(#paint12_linear)"/>
<path d="M422.245 333.449L425.416 322.577C425.416 322.577 425.471 320.127 423.273 319.605C421.074 319.084 420.256 319.21 418.92 320.083L415.585 331.488L410.035 329.873L415.046 312.678L420.596 314.293L419.855 316.842C419.855 316.842 422.723 313.826 426.355 315.194C429.729 316.419 431.669 319.27 430.911 323.923L431.021 323.956L427.784 335.048L422.245 333.449ZM409.056 308.542C408.398 308.35 407.811 307.967 407.37 307.442C406.929 306.917 406.653 306.273 406.578 305.591C406.504 304.91 406.633 304.221 406.949 303.613C407.266 303.005 407.756 302.504 408.357 302.174C408.959 301.844 409.645 301.7 410.328 301.76C411.011 301.82 411.661 302.081 412.196 302.51C412.731 302.94 413.127 303.518 413.333 304.172C413.539 304.826 413.546 305.527 413.354 306.185C413.093 307.068 412.492 307.811 411.683 308.252C410.874 308.693 409.924 308.795 409.04 308.536L409.056 308.542ZM406.155 328.741L400.605 327.126L405.617 309.931L411.167 311.547L406.155 328.741Z" fill="#0077B5"/>
<path d="M346.065 293.435H291.74V361.026H346.065V293.435Z" fill="url(#paint13_linear)"/>
<path d="M343.752 295.742H294.053V358.137H343.752V295.742Z" fill="white"/>
<path d="M299.059 298.153C296.455 298.153 296.455 302.197 299.059 302.197C301.664 302.197 301.664 298.153 299.059 298.153Z" fill="#64FFDA"/>
<path d="M338.355 298.153C335.751 298.153 335.751 302.197 338.355 302.197C340.96 302.197 340.966 298.153 338.355 298.153Z" fill="#64FFDA"/>
<path d="M329.882 325.5C329.244 328.56 328.783 332.724 322.37 334.163C322.37 334.163 318.611 335.147 317.424 332.433C316.671 335.377 315.924 338.097 315.457 338.789C314.588 340.201 313.622 341.552 312.566 342.832C312.566 342.832 313.088 337.635 313.143 336.476C313.204 334.685 314.874 326.654 314.874 326.654C314.874 326.654 313.314 320.99 317.188 320.298C317.188 320.298 320.364 319.545 319.501 323.764C319.501 323.764 318.864 326.511 318.056 329.714L318.347 330.12C318.347 330.12 319.1 331.68 320.661 331.851C322.222 332.021 326.326 329.252 326.442 324.341C326.557 319.43 325.519 318.045 321.243 316.831C316.968 315.617 313.325 317.699 311.995 321.451C310.495 325.725 311.704 326.769 312.572 327.807L311.995 330.697C311.995 330.697 307.808 329.291 307.923 324.896C308.038 320.501 310.522 313.909 319.463 313.909C328.404 313.909 330.519 322.38 329.882 325.5Z" fill="url(#paint14_linear)"/>
<path d="M331.036 323.764C330.398 326.824 329.937 330.988 323.524 332.427C323.524 332.427 319.765 333.411 318.578 330.697C317.825 333.641 317.078 336.361 316.611 337.053C315.742 338.465 314.776 339.816 313.72 341.096C313.72 341.096 314.242 335.899 314.297 334.74C314.358 332.949 316.028 324.918 316.028 324.918C316.028 324.918 314.468 319.254 318.342 318.562C318.342 318.562 321.518 317.809 320.655 322.028C320.655 322.028 320.018 324.775 319.21 327.978L319.501 328.384C319.501 328.384 320.254 329.944 321.815 330.115C323.375 330.285 327.48 327.516 327.596 322.605C327.711 317.694 326.673 316.309 322.397 315.095C318.122 313.881 314.479 315.963 313.149 319.715C311.649 323.989 312.858 325.033 313.726 326.071L313.149 328.961C313.149 328.961 308.989 327.577 309.104 323.182C309.22 318.787 311.704 312.195 320.644 312.195C329.585 312.195 331.657 320.644 331.036 323.764Z" fill="#BD081C"/>
<path d="M447.776 198.688H393.45V266.28H447.776V198.688Z" fill="url(#paint15_linear)"/>
<path d="M445.462 200.996H395.764V263.391H445.462V200.996Z" fill="white"/>
<path d="M400.77 203.407C398.165 203.407 398.165 207.451 400.77 207.451C403.374 207.451 403.38 203.407 400.77 203.407Z" fill="#64FFDA"/>
<path d="M440.066 203.407C437.461 203.407 437.461 207.451 440.066 207.451C442.67 207.451 442.659 203.407 440.066 203.407Z" fill="#64FFDA"/>
<path d="M436.505 232.775H432.768V236.533C432.763 236.761 432.669 236.979 432.508 237.141C432.346 237.302 432.128 237.395 431.9 237.401H431.323C431.094 237.395 430.877 237.302 430.715 237.141C430.554 236.979 430.46 236.761 430.455 236.533V232.775H426.696C426.467 232.77 426.25 232.677 426.088 232.515C425.927 232.354 425.833 232.136 425.828 231.907V231.331C425.833 231.102 425.927 230.885 426.088 230.723C426.25 230.562 426.467 230.468 426.696 230.463H430.455V226.705C430.46 226.477 430.554 226.259 430.715 226.098C430.877 225.936 431.094 225.843 431.323 225.837H431.9C432.128 225.843 432.346 225.936 432.508 226.098C432.669 226.259 432.763 226.477 432.768 226.705V230.463H436.527C436.755 230.468 436.973 230.562 437.135 230.723C437.296 230.885 437.39 231.102 437.395 231.331V231.907C437.389 232.14 437.293 232.36 437.127 232.523C436.96 232.685 436.737 232.776 436.505 232.775ZM423.426 222.607C424.21 223.616 424.637 224.856 424.641 226.134C424.609 227.344 424.219 228.517 423.52 229.505C422.82 230.493 421.843 231.251 420.712 231.682C420.888 232.259 421.465 232.896 422.91 233.935C425.657 235.956 425.8 239.714 425.8 239.714V240.005C425.8 243.01 422.157 245.498 417.711 245.498C413.266 245.498 409.622 243.015 409.622 240.005C409.622 237.115 412.92 234.748 417.134 234.511V232.144C413.898 231.737 411.353 229.199 411.353 226.134C411.353 222.783 414.299 220.091 417.997 220.091H418.288C418.288 220.091 424.932 219.569 425.8 219.514C426.669 219.459 426.377 220.668 426.377 220.668L423.426 222.607ZM413.661 239.708C413.661 241.615 415.629 243.175 417.997 243.175C420.366 243.175 422.333 241.615 422.333 239.708C422.333 237.802 420.366 236.242 417.997 236.242C415.629 236.242 413.678 237.802 413.678 239.708H413.661ZM420.712 225.552C420.25 223.354 418.629 221.794 417.129 222.085C415.629 222.376 414.815 224.453 415.277 226.65C415.739 228.848 417.36 230.408 418.86 230.117C420.36 229.825 421.19 227.804 420.728 225.552H420.712Z" fill="url(#paint16_linear)"/>
<path d="M437.659 231.04H433.9V234.803C433.895 235.031 433.801 235.249 433.64 235.41C433.478 235.572 433.26 235.665 433.032 235.671H432.455C432.226 235.665 432.009 235.572 431.847 235.41C431.686 235.249 431.592 235.031 431.587 234.803V231.045H427.823C427.594 231.039 427.376 230.946 427.215 230.785C427.053 230.623 426.96 230.406 426.954 230.177V229.6C426.96 229.372 427.053 229.154 427.215 228.993C427.376 228.831 427.594 228.738 427.823 228.732H431.581V224.975C431.587 224.746 431.68 224.529 431.842 224.367C432.003 224.206 432.221 224.112 432.449 224.107H433.026C433.255 224.112 433.473 224.206 433.634 224.367C433.796 224.529 433.889 224.746 433.895 224.975V228.732H437.653C437.882 228.738 438.1 228.831 438.261 228.993C438.423 229.154 438.516 229.372 438.522 229.6V230.177C438.515 230.404 438.422 230.619 438.261 230.779C438.101 230.94 437.886 231.033 437.659 231.04ZM424.597 220.871C425.38 221.88 425.808 223.12 425.811 224.398C425.78 225.608 425.39 226.781 424.69 227.769C423.991 228.757 423.013 229.515 421.882 229.946C422.058 230.523 422.635 231.16 424.08 232.199C426.828 234.22 426.971 237.978 426.971 237.978V238.269C426.971 241.274 423.327 243.762 418.882 243.762C414.436 243.762 410.787 241.268 410.787 238.263C410.787 235.374 414.085 233.006 418.299 232.77V230.408C415.063 230.001 412.518 227.463 412.518 224.398C412.518 221.047 415.464 218.355 419.162 218.355H419.453C419.453 218.355 426.097 217.833 426.965 217.778C427.834 217.723 427.542 218.932 427.542 218.932L424.597 220.871ZM414.832 237.972C414.832 239.879 416.799 241.439 419.168 241.439C421.536 241.439 423.503 239.879 423.503 237.972C423.503 236.066 421.536 234.506 419.168 234.506C416.799 234.506 414.832 236.066 414.832 237.972ZM421.882 223.816C421.421 221.618 419.8 220.058 418.299 220.349C416.799 220.64 415.986 222.717 416.448 224.914C416.909 227.112 418.53 228.672 420.03 228.381C421.531 228.09 422.327 226.073 421.882 223.816Z" fill="#D34836"/>
<path d="M330.173 255.76V259.056H326.876" stroke="#64FFDA" stroke-miterlimit="10"/>
<path d="M321.425 259.056H289.965" stroke="#64FFDA" stroke-miterlimit="10" stroke-dasharray="10.82 9.92"/>
<path d="M287.239 259.056H283.942V255.76" stroke="#64FFDA" stroke-miterlimit="10"/>
<path d="M283.942 249.805V202.94" stroke="#64FFDA" stroke-miterlimit="10" stroke-dasharray="11.83 10.85"/>
<path d="M283.942 199.963V196.667H287.239" stroke="#64FFDA" stroke-miterlimit="10"/>
<path d="M292.685 196.667H324.15" stroke="#64FFDA" stroke-miterlimit="10" stroke-dasharray="10.82 9.92"/>
<path d="M326.876 196.667H330.173V199.963" stroke="#64FFDA" stroke-miterlimit="10"/>
<path d="M330.173 205.918V252.783" stroke="#64FFDA" stroke-miterlimit="10" stroke-dasharray="11.83 10.85"/>
<path opacity="0.2" d="M330.173 196.667H283.942V259.062H330.173V196.667Z" fill="#64FFDA"/>
<path d="M285.964 165.178L305.609 135.717L325.26 165.178" stroke="#341F97" stroke-width="3" stroke-linecap="round" stroke-linejoin="round"/>
<path d="M332.195 158.245H277.87V225.837H332.195V158.245Z" fill="url(#paint17_linear)"/>
<path d="M330.459 160.558H280.76V222.953H330.459V160.558Z" fill="white"/>
<path d="M285.766 162.964C283.162 162.964 283.162 167.007 285.766 167.007C288.371 167.007 288.376 162.964 285.766 162.964Z" fill="#64FFDA"/>
<path d="M325.062 162.964C322.458 162.964 322.458 167.007 325.062 167.007C327.667 167.007 327.673 162.964 325.062 162.964Z" fill="#64FFDA"/>
<path d="M306.461 185.482L306.362 188.372L310.984 188.531L310.225 193.706L306.181 193.568L305.686 208.005L299.334 207.786L299.829 193.349L296.938 193.25L297.114 188.053L300.004 188.152L300.103 185.262C300.103 185.262 299.774 179.769 304.945 179.071L311.324 179.318L311.165 183.938L308.275 183.84C308.047 183.825 307.818 183.856 307.603 183.931C307.387 184.006 307.189 184.124 307.02 184.277C306.851 184.43 306.714 184.616 306.618 184.823C306.522 185.03 306.469 185.254 306.461 185.482Z" fill="url(#paint18_linear)"/>
<path d="M307.797 183.812L307.632 186.696L312.248 186.954L311.379 192.113L307.34 191.888L306.527 206.308L300.18 205.951L300.993 191.53L298.109 191.366L298.4 186.174L301.285 186.339L301.45 183.455C301.45 183.455 301.241 177.962 306.423 177.368L312.77 177.725L312.511 182.34L309.626 182.175C309.398 182.158 309.168 182.187 308.951 182.261C308.734 182.335 308.534 182.451 308.363 182.604C308.192 182.757 308.054 182.943 307.956 183.15C307.859 183.358 307.805 183.583 307.797 183.812Z" fill="#3B5998"/>
</g>
<defs>
<linearGradient id="paint0_linear" x1="92.3961" y1="88.0606" x2="92.3961" y2="0" gradientUnits="userSpaceOnUse">
<stop stop-color="#808080" stop-opacity="0.25"/>
<stop offset="0.54" stop-color="#808080" stop-opacity="0.12"/>
<stop offset="1" stop-color="#808080" stop-opacity="0.1"/>
</linearGradient>
<linearGradient id="paint1_linear" x1="15559.5" y1="33247.5" x2="15559.5" y2="29176.9" gradientUnits="userSpaceOnUse">
<stop stop-color="#808080" stop-opacity="0.25"/>
<stop offset="0.54" stop-color="#808080" stop-opacity="0.12"/>
<stop offset="1" stop-color="#808080" stop-opacity="0.1"/>
</linearGradient>
<linearGradient id="paint2_linear" x1="9880.78" y1="152755" x2="9880.78" y2="38384" gradientUnits="userSpaceOnUse">
<stop stop-color="#808080" stop-opacity="0.25"/>
<stop offset="0.54" stop-color="#808080" stop-opacity="0.12"/>
<stop offset="1" stop-color="#808080" stop-opacity="0.1"/>
</linearGradient>
<linearGradient id="paint3_linear" x1="21839.6" y1="2532.23" x2="21839.6" y2="2384.57" gradientUnits="userSpaceOnUse">
<stop stop-color="#808080" stop-opacity="0.25"/>
<stop offset="0.54" stop-color="#808080" stop-opacity="0.12"/>
<stop offset="1" stop-color="#808080" stop-opacity="0.1"/>
</linearGradient>
<linearGradient id="paint4_linear" x1="4150.74" y1="6356.64" x2="4150.74" y2="695.611" gradientUnits="userSpaceOnUse">
<stop stop-color="#808080" stop-opacity="0.25"/>
<stop offset="0.54" stop-color="#808080" stop-opacity="0.12"/>
<stop offset="1" stop-color="#808080" stop-opacity="0.1"/>
</linearGradient>
<linearGradient id="paint5_linear" x1="30331.2" y1="6367.67" x2="30331.2" y2="684.584" gradientUnits="userSpaceOnUse">
<stop stop-color="#808080" stop-opacity="0.25"/>
<stop offset="0.54" stop-color="#808080" stop-opacity="0.12"/>
<stop offset="1" stop-color="#808080" stop-opacity="0.1"/>
</linearGradient>
<linearGradient id="paint6_linear" x1="99933.8" y1="6406.99" x2="99933.8" y2="652.335" gradientUnits="userSpaceOnUse">
<stop stop-color="#808080" stop-opacity="0.25"/>
<stop offset="0.54" stop-color="#808080" stop-opacity="0.12"/>
<stop offset="1" stop-color="#808080" stop-opacity="0.1"/>
</linearGradient>
<linearGradient id="paint7_linear" x1="11579.1" y1="15826.5" x2="12104.8" y2="15826.5" gradientUnits="userSpaceOnUse">
<stop stop-color="#808080" stop-opacity="0.25"/>
<stop offset="0.54" stop-color="#808080" stop-opacity="0.12"/>
<stop offset="1" stop-color="#808080" stop-opacity="0.1"/>
</linearGradient>
<linearGradient id="paint8_linear" x1="162098" y1="146785" x2="162098" y2="63229.3" gradientUnits="userSpaceOnUse">
<stop stop-color="#808080" stop-opacity="0.25"/>
<stop offset="0.54" stop-color="#808080" stop-opacity="0.12"/>
<stop offset="1" stop-color="#808080" stop-opacity="0.1"/>
</linearGradient>
<linearGradient id="paint9_linear" x1="24547" y1="40701.3" x2="24547" y2="32384.1" gradientUnits="userSpaceOnUse">
<stop stop-color="#808080" stop-opacity="0.25"/>
<stop offset="0.54" stop-color="#808080" stop-opacity="0.12"/>
<stop offset="1" stop-color="#808080" stop-opacity="0.1"/>
</linearGradient>
<linearGradient id="paint10_linear" x1="17658.6" y1="15853.7" x2="17658.6" y2="14833.2" gradientUnits="userSpaceOnUse">
<stop stop-color="#808080" stop-opacity="0.25"/>
<stop offset="0.54" stop-color="#808080" stop-opacity="0.12"/>
<stop offset="1" stop-color="#808080" stop-opacity="0.1"/>
</linearGradient>
<linearGradient id="paint11_linear" x1="41398.5" y1="43997.3" x2="41398.5" y2="35680.8" gradientUnits="userSpaceOnUse">
<stop stop-color="#808080" stop-opacity="0.25"/>
<stop offset="0.54" stop-color="#808080" stop-opacity="0.12"/>
<stop offset="1" stop-color="#808080" stop-opacity="0.1"/>
</linearGradient>
<linearGradient id="paint12_linear" x1="28180.4" y1="24051.3" x2="28180.4" y2="22030.3" gradientUnits="userSpaceOnUse">
<stop stop-color="#808080" stop-opacity="0.25"/>
<stop offset="0.54" stop-color="#808080" stop-opacity="0.12"/>
<stop offset="1" stop-color="#808080" stop-opacity="0.1"/>
</linearGradient>
<linearGradient id="paint13_linear" x1="31818.4" y1="44714.1" x2="31818.4" y2="36397.6" gradientUnits="userSpaceOnUse">
<stop stop-color="#808080" stop-opacity="0.25"/>
<stop offset="0.54" stop-color="#808080" stop-opacity="0.12"/>
<stop offset="1" stop-color="#808080" stop-opacity="0.1"/>
</linearGradient>
<linearGradient id="paint14_linear" x1="16590.2" y1="21244.2" x2="16590.2" y2="19723.1" gradientUnits="userSpaceOnUse">
<stop stop-color="#808080" stop-opacity="0.25"/>
<stop offset="0.54" stop-color="#808080" stop-opacity="0.12"/>
<stop offset="1" stop-color="#808080" stop-opacity="0.1"/>
</linearGradient>
<linearGradient id="paint15_linear" x1="41975.2" y1="32961.8" x2="41975.2" y2="24645.3" gradientUnits="userSpaceOnUse">
<stop stop-color="#808080" stop-opacity="0.25"/>
<stop offset="0.54" stop-color="#808080" stop-opacity="0.12"/>
<stop offset="1" stop-color="#808080" stop-opacity="0.1"/>
</linearGradient>
<linearGradient id="paint16_linear" x1="25485.6" y1="13804.5" x2="26887.6" y2="13804.5" gradientUnits="userSpaceOnUse">
<stop stop-color="#808080" stop-opacity="0.25"/>
<stop offset="0.54" stop-color="#808080" stop-opacity="0.12"/>
<stop offset="1" stop-color="#808080" stop-opacity="0.1"/>
</linearGradient>
<linearGradient id="paint17_linear" x1="30433.4" y1="27945.3" x2="30433.4" y2="19628.8" gradientUnits="userSpaceOnUse">
<stop stop-color="#808080" stop-opacity="0.25"/>
<stop offset="0.54" stop-color="#808080" stop-opacity="0.12"/>
<stop offset="1" stop-color="#808080" stop-opacity="0.1"/>
</linearGradient>
<linearGradient id="paint18_linear" x1="-4187.46" y1="28784.5" x2="-3253.07" y2="27506.5" gradientUnits="userSpaceOnUse">
<stop stop-color="#808080" stop-opacity="0.25"/>
<stop offset="0.54" stop-color="#808080" stop-opacity="0.12"/>
<stop offset="1" stop-color="#808080" stop-opacity="0.1"/>
</linearGradient>
<clipPath id="clip0">
<rect width="485" height="385" fill="white"/>
</clipPath>
</defs>
</svg>
