<svg width="125" height="23" viewBox="0 0 125 23" fill="none" xmlns="http://www.w3.org/2000/svg">
<path d="M124.383 0H0V22.114H124.383V0Z" fill="url(#paint0_linear)"/>
<path d="M123.475 0.723755H0.726318V20.9384H123.475V0.723755Z" fill="white"/>
<path d="M79.6212 4.85059H8.26538V16.8814H79.6212V4.85059Z" fill="#F5F5F5"/>
<path d="M107.301 5.61821C106.43 4.74625 105.317 4.13161 104.095 3.84652C102.872 3.56143 101.591 3.61773 100.4 4.00882C99.2101 4.3999 98.1607 5.10952 97.3754 6.05427C96.5901 6.99903 96.1016 8.13967 95.9672 9.34216C95.8329 10.5447 96.0583 11.759 96.6171 12.8426C97.1758 13.9261 98.0445 14.8339 99.1213 15.4591C100.198 16.0843 101.438 16.401 102.695 16.372C103.953 16.343 105.176 15.9695 106.22 15.2954L110.997 20.0725C111.056 20.1316 111.137 20.1657 111.222 20.1674C111.307 20.169 111.39 20.138 111.451 20.0811L112.642 18.9808C112.703 18.924 112.739 18.846 112.74 18.764C112.742 18.682 112.71 18.6028 112.651 18.5437L107.874 13.7666C108.79 12.5602 109.234 11.0823 109.13 9.59217C109.025 8.10206 108.377 6.69507 107.301 5.61821ZM105.813 13.2972C105.14 13.9201 104.289 14.3369 103.368 14.4949C102.448 14.6528 101.5 14.5449 100.644 14.1846C99.7871 13.8244 99.061 13.2281 98.5571 12.4711C98.0531 11.7142 97.794 10.8305 97.8124 9.93189C97.8308 9.03329 98.1259 8.16011 98.6604 7.42278C99.195 6.68545 99.9449 6.11708 100.815 5.78954C101.686 5.462 102.638 5.39 103.551 5.58266C104.464 5.77531 105.297 6.22396 105.945 6.87187C106.814 7.7407 107.288 8.90575 107.263 10.1107C107.239 11.3157 106.717 12.4619 105.813 13.2972Z" fill="url(#paint1_linear)"/>
<path d="M99.0372 8.7583C98.5058 8.7583 98.5049 9.55243 99.0372 9.55243C99.5687 9.55243 99.5696 8.7583 99.0372 8.7583Z" fill="url(#paint2_linear)"/>
<path d="M102.742 6.21413C102.068 6.19463 101.4 6.34052 100.801 6.63805C100.202 6.93559 99.6913 7.37496 99.3177 7.91471C99.0919 8.25452 99.733 8.55478 99.9576 8.21679C100.531 7.35433 101.62 6.80679 102.797 6.83512C103.392 6.85529 103.973 7.01653 104.488 7.30454C105.003 7.59255 105.436 7.9984 105.749 8.48605C105.975 8.84366 106.566 8.51848 106.342 8.16318C105.621 7.02082 104.22 6.2463 102.742 6.21413Z" fill="url(#paint3_linear)"/>
<path d="M107.301 4.91997C106.43 4.04801 105.317 3.43337 104.095 3.14828C102.872 2.86319 101.591 2.91949 100.4 3.31058C99.2101 3.70166 98.1607 4.41127 97.3754 5.35603C96.5901 6.30079 96.1016 7.44143 95.9672 8.64392C95.8329 9.84641 96.0583 11.0608 96.6171 12.1443C97.1758 13.2279 98.0445 14.1356 99.1213 14.7608C100.198 15.386 101.438 15.7027 102.695 15.6738C103.953 15.6448 105.176 15.2713 106.22 14.5972L110.997 19.3743C111.056 19.4334 111.137 19.4675 111.222 19.4691C111.307 19.4707 111.39 19.4397 111.451 19.3829L112.642 18.2825C112.703 18.2257 112.739 18.1477 112.74 18.0658C112.742 17.9838 112.71 17.9045 112.651 17.8454L107.874 13.0683C108.79 11.862 109.234 10.384 109.13 8.89393C109.025 7.40382 108.377 5.99683 107.301 4.91997ZM105.813 12.599C105.14 13.2219 104.289 13.6387 103.368 13.7966C102.448 13.9546 101.5 13.8466 100.644 13.4864C99.7871 13.1262 99.061 12.5299 98.5571 11.7729C98.0531 11.0159 97.794 10.1322 97.8124 9.23365C97.8308 8.33505 98.1259 7.46187 98.6604 6.72454C99.195 5.98721 99.9449 5.41884 100.815 5.0913C101.686 4.76376 102.638 4.69176 103.551 4.88442C104.464 5.07707 105.297 5.52572 105.945 6.17363C106.814 7.04245 107.288 8.20751 107.263 9.41249C107.239 10.6175 106.717 11.7637 105.813 12.599Z" fill="#6C63FF"/>
<path d="M99.0372 8.05981C98.5058 8.05981 98.5049 8.85397 99.0372 8.85397C99.5687 8.85397 99.5696 8.05981 99.0372 8.05981Z" fill="#6C63FF"/>
<path d="M102.742 5.51589C102.068 5.49638 101.4 5.64228 100.801 5.93982C100.202 6.23736 99.6913 6.67673 99.3177 7.21649C99.0919 7.5563 99.733 7.85657 99.9576 7.51857C100.531 6.65611 101.62 6.10855 102.797 6.13689C103.392 6.15705 103.973 6.3183 104.488 6.60631C105.003 6.89433 105.436 7.30018 105.749 7.78783C105.975 8.14545 106.566 7.82027 106.342 7.46496C105.621 6.32258 104.22 5.54805 102.742 5.51589Z" fill="#6C63FF"/>
<defs>
<linearGradient id="paint0_linear" x1="62.1916" y1="22.114" x2="62.1916" y2="0" gradientUnits="userSpaceOnUse">
<stop stop-color="#808080" stop-opacity="0.25"/>
<stop offset="0.53514" stop-color="#808080" stop-opacity="0.12"/>
<stop offset="1" stop-color="#808080" stop-opacity="0.1"/>
</linearGradient>
<linearGradient id="paint1_linear" x1="104.34" y1="20.1674" x2="104.34" y2="3.66814" gradientUnits="userSpaceOnUse"> 
<stop stop-color="#B3B3B3" stop-opacity="0.25"/>
<stop offset="0.53514" stop-color="#B3B3B3" stop-opacity="0.1"/>
<stop offset="1" stop-color="#B3B3B3" stop-opacity="0.05"/>
</linearGradient>
<linearGradient id="paint2_linear" x1="99.0372" y1="9.55243" x2="99.0372" y2="8.7583" gradientUnits="userSpaceOnUse">
<stop stop-opacity="0.27"/>
<stop offset="0.55135" stop-opacity="0.09"/>
<stop offset="1" stop-opacity="0.02"/>
</linearGradient>
<linearGradient id="paint3_linear" x1="6400.77" y1="527.686" x2="6400.77" y2="484.688" gradientUnits="userSpaceOnUse">
<stop stop-color="#666666" stop-opacity="0.2"/>
<stop offset="0.55135" stop-opacity="0.09"/>
<stop offset="1" stop-opacity="0.02"/>
</linearGradient>
</defs>
</svg>
