<svg id="Capa_1" enable-background="new 0 0 511.902 511.902" height="512" viewBox="0 0 511.902 511.902" width="512" xmlns="http://www.w3.org/2000/svg" xmlns:xlink="http://www.w3.org/1999/xlink"><linearGradient id="svgID_1_" gradientUnits="userSpaceOnUse" x1="68.032" x2="443.869" y1="443.869" y2="68.032"><stop offset="0" stop-color="#a93aff"/><stop offset="1" stop-color="#ff81ff"/></linearGradient><g><g><path d="m507.509 131.671-127.28-127.279c-5.854-5.854-15.356-5.857-21.213 0l-145.492 145.492c-5.858 5.858-5.858 15.355 0 21.213l31.82 31.82-42.426 42.426-31.82-31.82c-5.857-5.858-15.355-5.858-21.213 0l-145.493 145.493c-5.854 5.855-5.857 15.356 0 21.213l127.279 127.279c5.857 5.857 15.355 5.858 21.213 0l145.493-145.492c5.855-5.855 5.857-15.356 0-21.213l-31.82-31.82 42.427-42.426 31.82 31.82c5.857 5.858 15.355 5.858 21.213 0l145.492-145.492c5.858-5.859 5.858-15.356 0-21.214zm-240.952 219.739-124.279 124.279-106.066-106.066 124.279-124.279 21.213 21.213c-17.536 17.536-74.692 74.692-92.459 92.459-5.858 5.858-5.858 15.355 0 21.213l42.426 42.426c5.857 5.857 15.355 5.859 21.213 0 17.732-17.732 74.917-74.917 92.46-92.459zm-84.853 0-39.426 39.426-21.213-21.213 39.426-39.427zm21.213-21.213-21.213-21.213c10.443-10.443 110.292-110.292 127.279-127.279l21.213 21.213zm148.493-63.64-21.213-21.213c17.542-17.542 74.698-74.699 92.459-92.46 5.858-5.858 5.858-15.355 0-21.213l-42.426-42.427c-5.854-5.854-15.356-5.857-21.213 0-17.732 17.732-74.917 74.917-92.46 92.46l-21.213-21.213 124.279-124.279 106.066 106.066zm-21.213-106.066 39.426-39.427 21.213 21.213-39.426 39.427z" fill="url(#svgID_1_)"/></g></g></svg>