<svg width="40" height="40" viewBox="0 0 40 40" fill="none" xmlns="http://www.w3.org/2000/svg">
<path d="M38.3233 30.7748L27.402 37.1216C27.1439 37.2722 26.728 37.2722 26.4699 37.124L7.96543 26.439C7.70732 26.2909 7.70732 26.0495 7.96543 25.8989L18.8868 19.5522C19.1425 19.404 19.5583 19.404 19.8164 19.5522L38.3209 30.2347C38.579 30.3853 38.5814 30.6267 38.3233 30.7748Z" fill="#384E85"/>
<path d="M22.2125 29.3231C22.3596 29.4081 22.3587 29.5464 22.2126 29.6314L19.1778 31.395C19.0316 31.48 18.7927 31.4809 18.6456 31.396L12.6652 27.9432C12.5181 27.8583 12.519 27.7199 12.6651 27.635L15.6999 25.8713C15.8461 25.7864 16.085 25.7854 16.2321 25.8703L22.2125 29.3231Z" fill="#2E4277"/>
<path d="M38.5139 30.5072L38.5116 31.4823C38.5116 31.5779 38.447 31.6759 38.3204 31.75L27.399 38.0967C27.1409 38.2449 26.7251 38.2449 26.467 38.0967L7.9625 27.4142C7.83345 27.3401 7.76892 27.2421 7.76892 27.1417L7.77131 26.1691C7.77131 26.2671 7.83583 26.365 7.96489 26.4391L26.4694 37.1241C26.7275 37.2722 27.1433 37.2722 27.4014 37.1217L38.3228 30.7749C38.4518 30.7008 38.5139 30.6052 38.5139 30.5072Z" fill="#1B2A4F"/>
<path d="M21.9028 22.436L21.5557 22.6377L20.718 22.1541L21.065 21.9524L21.9028 22.436Z" fill="#798FFE"/>
<path d="M17.3352 23.7874L16.5677 24.2334L14.6039 23.0996L15.3714 22.6536L17.3352 23.7874Z" fill="#798FFE"/>
<path d="M17.1753 22.5758L16.4078 23.0218L15.5701 22.5382L16.3375 22.0922L17.1753 22.5758Z" fill="#798FFE"/>
<path d="M18.3014 23.226L17.5339 23.672L16.6962 23.1883L17.4636 22.7423L18.3014 23.226Z" fill="#798FFE"/>
<path d="M19.2676 22.6645L18.5001 23.1105L16.5363 21.9766L17.3037 21.5306L19.2676 22.6645Z" fill="#798FFE"/>
<path d="M20.3923 23.3137L19.6248 23.7597L18.7871 23.2761L19.5546 22.8301L20.3923 23.3137Z" fill="#798FFE"/>
<path d="M21.7759 22.995L21.0098 23.4402L20.1721 22.9565L20.9382 22.5114L21.7759 22.995Z" fill="#798FFE"/>
<path d="M20.6511 22.3456L19.8851 22.7908L19.0474 22.3071L19.8134 21.8619L20.6511 22.3456Z" fill="#798FFE"/>
<path d="M20.778 21.7866L20.431 21.9883L19.5933 21.5046L19.9403 21.303L20.778 21.7866Z" fill="#798FFE"/>
<path d="M19.525 21.6955L18.759 22.1406L17.5024 21.4151L18.2685 20.97L19.525 21.6955Z" fill="#798FFE"/>
<path d="M19.6519 21.1365L19.3049 21.3382L18.4672 20.8545L18.8142 20.6528L19.6519 21.1365Z" fill="#798FFE"/>
<path d="M26.4043 25.035L26.0573 25.2367L25.2196 24.7531L25.5666 24.5514L26.4043 25.035Z" fill="#798FFE"/>
<path d="M26.2775 25.594L25.5114 26.0392L24.6737 25.5555L25.4397 25.1104L26.2775 25.594Z" fill="#798FFE"/>
<path d="M25.1528 24.9446L24.3868 25.3898L23.5491 24.9061L24.3151 24.4609L25.1528 24.9446Z" fill="#798FFE"/>
<path d="M21.6768 25.1748L20.9094 25.6208L20.0717 25.1372L20.8391 24.6912L21.6768 25.1748Z" fill="#798FFE"/>
<path d="M22.8031 25.825L22.0356 26.271L21.1979 25.7873L21.9654 25.3413L22.8031 25.825Z" fill="#798FFE"/>
<path d="M23.029 23.0862L22.6819 23.2879L21.8442 22.8042L22.1913 22.6025L23.029 23.0862Z" fill="#798FFE"/>
<path d="M24.1536 23.7355L23.8066 23.9372L22.9689 23.4535L23.3159 23.2518L24.1536 23.7355Z" fill="#798FFE"/>
<path d="M22.9021 23.6452L22.1361 24.0903L21.2983 23.6067L22.0644 23.1615L22.9021 23.6452Z" fill="#798FFE"/>
<path d="M21.5185 23.964L20.751 24.41L19.9133 23.9264L20.6808 23.4803L21.5185 23.964Z" fill="#798FFE"/>
<path d="M24.0267 24.2944L23.2607 24.7396L22.423 24.256L23.189 23.8108L24.0267 24.2944Z" fill="#798FFE"/>
<path d="M20.5522 24.5255L19.7847 24.9715L18.947 24.4879L19.7145 24.0419L20.5522 24.5255Z" fill="#798FFE"/>
<path d="M22.6432 24.6133L21.8757 25.0593L21.038 24.5756L21.8054 24.1296L22.6432 24.6133Z" fill="#798FFE"/>
<path d="M22.9616 27.0358L22.1956 27.481L16.8562 24.3983L17.6222 23.9531L22.9616 27.0358Z" fill="#798FFE"/>
<path d="M25.2797 24.3856L24.9327 24.5873L24.095 24.1036L24.442 23.902L25.2797 24.3856Z" fill="#798FFE"/>
<path d="M27.5306 25.6852L27.1835 25.8868L26.3444 25.4023L26.6914 25.2007L27.5306 25.6852Z" fill="#798FFE"/>
<path d="M29.7798 26.9839L29.4328 27.1856L28.5951 26.7019L28.9421 26.5002L29.7798 26.9839Z" fill="#798FFE"/>
<path d="M23.7693 25.2634L23.0018 25.7095L22.1641 25.2258L22.9315 24.7798L23.7693 25.2634Z" fill="#798FFE"/>
<path d="M24.8939 25.9129L24.1264 26.3589L23.2887 25.8752L24.0562 25.4292L24.8939 25.9129Z" fill="#798FFE"/>
<path d="M26.0201 26.563L25.2526 27.009L24.4135 26.5245L25.1809 26.0785L26.0201 26.563Z" fill="#798FFE"/>
<path d="M27.4022 26.2433L26.6362 26.6885L25.7999 26.2057L26.566 25.7605L27.4022 26.2433Z" fill="#798FFE"/>
<path d="M27.1447 27.2123L26.3773 27.6583L25.5396 27.1746L26.307 26.7286L27.1447 27.2123Z" fill="#798FFE"/>
<path d="M26.337 28.9846L25.5695 29.4306L24.7318 28.947L25.4993 28.501L26.337 28.9846Z" fill="#798FFE"/>
<path d="M27.3032 28.4231L26.5357 28.8691L25.698 28.3855L26.4655 27.9395L27.3032 28.4231Z" fill="#798FFE"/>
<path d="M29.3955 28.5119L28.628 28.9579L26.6642 27.8241L27.4317 27.3781L29.3955 28.5119Z" fill="#798FFE"/>
<path d="M30.9059 27.634L30.5589 27.8357L29.7212 27.3521L30.0682 27.1504L30.9059 27.634Z" fill="#798FFE"/>
<path d="M30.3602 27.9512L29.5942 28.3964L28.0492 27.5044L28.8152 27.0592L30.3602 27.9512Z" fill="#798FFE"/>
<path d="M28.5283 26.8934L27.7623 27.3386L26.9246 26.855L27.6906 26.4098L28.5283 26.8934Z" fill="#798FFE"/>
<path d="M28.6552 26.3345L28.3082 26.5362L27.4705 26.0525L27.8175 25.8508L28.6552 26.3345Z" fill="#798FFE"/>
<path d="M32.6145 30.3704L31.847 30.8164L31.0093 30.3327L31.7767 29.8867L32.6145 30.3704Z" fill="#798FFE"/>
<path d="M34.8653 31.6698L34.0979 32.1158L33.2601 31.6322L34.0276 31.1862L34.8653 31.6698Z" fill="#798FFE"/>
<path d="M29.556 30.8432L28.7885 31.2892L27.9508 30.8055L28.7183 30.3595L29.556 30.8432Z" fill="#798FFE"/>
<path d="M32.9988 28.8423L32.6518 29.044L31.8141 28.5603L32.1611 28.3586L32.9988 28.8423Z" fill="#798FFE"/>
<path d="M32.4531 29.1594L31.6871 29.6046L30.8494 29.121L31.6154 28.6758L32.4531 29.1594Z" fill="#798FFE"/>
<path d="M34.1249 29.4924L33.7779 29.6941L32.9402 29.2105L33.2872 29.0088L34.1249 29.4924Z" fill="#798FFE"/>
<path d="M31.4884 29.7201L30.7209 30.1661L29.8832 29.6825L30.6506 29.2365L31.4884 29.7201Z" fill="#798FFE"/>
<path d="M33.5792 29.8096L32.8132 30.2548L31.9755 29.7711L32.7415 29.3259L33.5792 29.8096Z" fill="#798FFE"/>
<path d="M30.5222 30.2816L29.7547 30.7276L28.917 30.244L29.6845 29.798L30.5222 30.2816Z" fill="#798FFE"/>
<path d="M34.704 30.459L33.9379 30.9042L33.1002 30.4205L33.8663 29.9753L34.704 30.459Z" fill="#798FFE"/>
<path d="M31.6483 30.9318L30.8808 31.3778L30.0431 30.8941L30.8106 30.4481L31.6483 30.9318Z" fill="#798FFE"/>
<path d="M33.7392 31.0195L32.9717 31.4656L32.134 30.9819L32.9015 30.5359L33.7392 31.0195Z" fill="#798FFE"/>
<path d="M32.773 31.5811L32.0056 32.0271L31.1678 31.5434L31.9353 31.0974L32.773 31.5811Z" fill="#798FFE"/>
<path d="M19.4261 23.8753L18.6586 24.3213L17.8209 23.8376L18.5884 23.3916L19.4261 23.8753Z" fill="#798FFE"/>
<path d="M24.0876 27.6859L23.3201 28.1319L22.481 27.6474L23.2484 27.2014L24.0876 27.6859Z" fill="#798FFE"/>
<path d="M25.0538 27.1245L24.2863 27.5705L23.4471 27.086L24.2146 26.64L25.0538 27.1245Z" fill="#798FFE"/>
<path d="M25.2124 28.3353L24.4449 28.7813L23.6072 28.2977L24.3747 27.8517L25.2124 28.3353Z" fill="#798FFE"/>
<path d="M26.1786 27.7738L25.4111 28.2198L24.5734 27.7362L25.3408 27.2902L26.1786 27.7738Z" fill="#798FFE"/>
<path d="M23.9277 26.4743L23.1602 26.9203L22.3225 26.4366L23.09 25.9906L23.9277 26.4743Z" fill="#798FFE"/>
<path d="M27.4631 29.6348L26.6956 30.0808L25.8579 29.5971L26.6254 29.1511L27.4631 29.6348Z" fill="#798FFE"/>
<path d="M35.8301 31.1091L35.064 31.5543L34.2263 31.0707L34.9924 30.6255L35.8301 31.1091Z" fill="#798FFE"/>
<path d="M36.3758 30.792L36.0288 30.9937L35.191 30.51L35.5381 30.3083L36.3758 30.792Z" fill="#798FFE"/>
<path d="M35.2497 30.1419L34.9027 30.3435L34.0649 29.8599L34.412 29.6582L35.2497 30.1419Z" fill="#798FFE"/>
<path d="M30.6821 31.4933L29.9146 31.9393L29.0769 31.4557L29.8444 31.0096L30.6821 31.4933Z" fill="#798FFE"/>
<path d="M33.8991 32.2313L32.1655 33.2388L31.3278 32.7552L33.0614 31.7477L33.8991 32.2313Z" fill="#798FFE"/>
<path d="M31.8069 32.1426L31.0394 32.5886L30.2017 32.1049L30.9691 31.6589L31.8069 32.1426Z" fill="#798FFE"/>
<path d="M38.0897 15.989C38.3476 16.1379 38.5559 16.4988 38.5551 16.7951L38.5221 29.8138C38.5212 30.1084 38.3115 30.2297 38.0537 30.0808L19.8158 19.5522C19.558 19.4033 19.3496 19.0406 19.3505 18.7461L19.3835 5.72735C19.3843 5.43103 19.594 5.31153 19.8519 5.46041L38.0897 15.989Z" fill="#1B2A4F"/>
<path d="M39.0448 16.5113L39.0113 29.5296C39.0113 29.6754 38.9587 29.7805 38.8751 29.8283L38.386 30.1128C38.4696 30.065 38.5222 29.9598 38.5222 29.814L38.5556 16.7958C38.5556 16.4995 38.3477 16.1386 38.0896 15.988L19.8517 5.46061C19.7227 5.38652 19.6056 5.37936 19.5195 5.42714L20.0087 5.14269C20.0923 5.09489 20.2118 5.10205 20.3409 5.17613L38.5788 15.706C38.8369 15.8541 39.0448 16.215 39.0448 16.5113Z" fill="#384E85"/>
<path d="M37.8968 16.6364L37.865 29.2133L20.0087 18.9049L20.0404 6.328L37.8968 16.6364Z" fill="#D9DDF6"/>
<path d="M35.8093 12.8823L35.78 22.8003C35.7796 22.9631 35.7222 23.0776 35.6296 23.1313L36.2689 22.7598C36.3615 22.7061 36.4189 22.5916 36.4194 22.4288L36.4486 12.5107L35.8093 12.8823Z" fill="#4466FB"/>
<path d="M35.8093 12.8823L35.78 22.8004C35.7791 23.1278 35.5478 23.2596 35.2641 23.0958L21.9648 15.4174C21.6799 15.2529 21.4501 14.855 21.4511 14.5276L21.4803 4.6095L35.8093 12.8823Z" fill="#6BB5FB"/>
<path d="M22.038 5.57947L22.0117 14.7965L35.2199 22.4225L35.2476 13.2058L22.038 5.57947Z" fill="white"/>
<path d="M36.4546 10.9293L36.4505 12.5115L35.8099 12.8805L35.814 11.3024C35.814 10.9739 35.5829 10.5766 35.299 10.4144L22.0003 2.73521C21.8584 2.65411 21.7286 2.646 21.6354 2.6987L22.2719 2.3257C22.3693 2.27298 22.499 2.28108 22.6409 2.36218L35.9397 10.0414C36.2235 10.2076 36.4546 10.605 36.4546 10.9293Z" fill="#384E85"/>
<path d="M35.3009 10.4136C35.5847 10.5775 35.8145 10.9754 35.8135 11.3015L35.8093 12.8822L21.4803 4.60939L21.4846 3.02864C21.4855 2.70256 21.7167 2.57078 22.0017 2.73529L35.3009 10.4136Z" fill="#2E4277"/>
<path d="M34.8364 10.6627C34.6411 10.55 34.4821 10.6406 34.4814 10.865C34.4808 11.0895 34.6388 11.3619 34.8341 11.4747C35.0284 11.5868 35.1874 11.4974 35.188 11.273C35.1887 11.0485 35.0307 10.7749 34.8364 10.6627Z" fill="#B7C5FD"/>
<path d="M32.5685 9.35354C32.3732 9.24078 32.2141 9.3314 32.2135 9.55582C32.2129 9.78025 32.3709 10.0527 32.5662 10.1655C32.7604 10.2776 32.9195 10.1882 32.9201 9.96377C32.9207 9.73934 32.7627 9.46571 32.5685 9.35354Z" fill="#B7C5FD"/>
<path d="M33.7025 10.008C33.5072 9.8952 33.3482 9.98582 33.3475 10.2102C33.3469 10.4347 33.5049 10.7071 33.7002 10.8199C33.8955 10.9326 34.0535 10.8426 34.0541 10.6182C34.0548 10.3938 33.8978 10.1207 33.7025 10.008Z" fill="#B7C5FD"/>
<path d="M24.4443 10.5236L24.9839 11.4582C24.3431 11.6585 23.8682 12.1895 23.6594 12.9988L23.5491 12.9351C23.5772 11.8538 23.909 11.0364 24.4443 10.5236Z" fill="#D9DDF6"/>
<path d="M27.9523 10.4784L27.9469 12.366C27.716 12.18 27.4787 12.0142 27.2351 11.8736C26.3877 11.3843 25.606 11.2637 24.9839 11.4582L24.4443 10.5236C25.2473 9.75304 26.5156 9.67766 27.9523 10.4784Z" fill="#B7C5FD"/>
<path d="M31.4781 14.3977C32.0836 15.6028 32.4554 16.8958 32.4791 18.0909L30.7926 17.1172C30.6651 16.4661 30.4355 15.8016 30.1287 15.1691L31.4781 14.3977Z" fill="#9AADFD"/>
<path d="M28.0314 10.5193C29.4243 11.3235 30.6631 12.7768 31.4781 14.3976L30.1287 15.169C29.5959 14.0777 28.8291 13.0743 27.9469 12.3661L27.9523 10.4784C27.9772 10.4928 28.0043 10.5037 28.0314 10.5193Z" fill="#AABAFD"/>
<path d="M30.8304 13.3949L27.6433 15.5214C27.7309 15.8271 27.6835 16.101 27.503 16.2038C27.3824 16.2725 27.2247 16.2508 27.067 16.1598C26.9088 16.0684 26.7505 15.9073 26.6294 15.6976C26.3893 15.2817 26.3906 14.8315 26.6323 14.6937C26.7528 14.6251 26.9111 14.647 27.0688 14.738C27.145 14.7821 27.2211 14.8422 27.2928 14.9161L30.8304 13.3949Z" fill="#535D88"/>
<path d="M16.027 6.49484L16.0222 19.6983C16.0217 19.8895 15.8961 20.0803 15.6452 20.226L10.0103 23.5007C9.50522 23.7942 8.68367 23.7944 8.17537 23.5007L1.33831 19.5534C1.08245 19.4057 0.954745 19.212 0.955201 19.0182L0.959977 5.81592C0.959977 6.00895 1.08768 6.20245 1.34286 6.34973L8.17991 10.2973C8.68845 10.5907 9.50999 10.5907 10.0151 10.297L15.65 7.02251C15.9009 6.87658 16.0265 6.68582 16.027 6.49484Z" fill="#4466FB"/>
<path d="M15.6441 5.95965C16.1525 6.25317 16.1552 6.72894 15.6501 7.02247L10.0152 10.2971C9.51008 10.5907 8.68855 10.5907 8.18016 10.2972L1.34306 6.34984C0.834673 6.05632 0.832136 5.58045 1.33722 5.28693L6.97217 2.01226C7.47726 1.71873 8.29864 1.71873 8.80703 2.01225L15.6441 5.95965Z" fill="#6BB5FB"/>
<path d="M13.4402 6.25608C13.6651 6.38592 13.6661 6.59632 13.4427 6.72616L9.49617 9.01963C9.27275 9.14947 8.90951 9.14955 8.68463 9.01971L3.547 6.05351C3.32212 5.92368 3.32094 5.71318 3.54435 5.58335L7.49087 3.28988C7.7143 3.16004 8.07769 3.16004 8.30257 3.28988L13.4402 6.25608Z" fill="#4466FB"/>
<path d="M7.67881 10.9924L1.81699 7.60792C1.69558 7.53783 1.54382 7.62544 1.54382 7.76564V8.96374C1.54382 9.09386 1.61325 9.2141 1.72594 9.27916L7.58775 12.6634C7.70916 12.7335 7.86091 12.6459 7.86091 12.5057V11.3078C7.86091 11.1777 7.79149 11.0574 7.67881 10.9924Z" fill="#3955D1"/>
<path d="M10.0686 11.2936C9.91335 11.3832 9.78783 11.6006 9.78833 11.7791L9.79394 13.2286C9.79444 13.407 9.92079 13.479 10.0761 13.3894C10.2313 13.2997 10.3569 13.0823 10.3564 12.9039L10.3508 11.4543C10.3502 11.2759 10.2239 11.2039 10.0686 11.2936Z" fill="#1B2A4F"/>
<path d="M10.2252 12.8345L10.2196 11.3849C10.2194 11.3317 10.208 11.2881 10.1881 11.2553C10.2844 11.2511 10.3514 11.3245 10.3518 11.4544L10.3574 12.9039C10.3579 13.0824 10.2324 13.2998 10.0771 13.3894C9.96806 13.4524 9.87338 13.4356 9.82642 13.3583C9.86246 13.3567 9.90258 13.3444 9.94486 13.3199C10.1002 13.2303 10.2257 13.0129 10.2252 12.8345Z" fill="#6BB5FB"/>
<path d="M14.9356 8.46532C14.7803 8.55498 14.6548 8.77238 14.6553 8.95081L14.6609 10.4004C14.6614 10.5788 14.7877 10.6508 14.943 10.5611C15.0983 10.4715 15.2238 10.2541 15.2233 10.0757L15.2177 8.6261C15.2172 8.44766 15.0909 8.37567 14.9356 8.46532Z" fill="#1B2A4F"/>
<path d="M15.0921 10.0062L15.0865 8.55665C15.0863 8.50348 15.075 8.45985 15.055 8.42705C15.1513 8.4229 15.2183 8.4963 15.2187 8.62613L15.2243 10.0757C15.2248 10.2541 15.0993 10.4715 14.944 10.5612C14.835 10.6241 14.7403 10.6073 14.6934 10.53C14.7294 10.5284 14.7695 10.5161 14.8118 10.4917C14.9671 10.402 15.0926 10.1846 15.0921 10.0062Z" fill="#6BB5FB"/>
<path d="M13.7188 9.17235C13.5635 9.26201 13.438 9.47941 13.4385 9.65784L13.4441 11.1074C13.4446 11.2858 13.5709 11.3578 13.7262 11.2682C13.8815 11.1785 14.007 10.9611 14.0065 10.7827L14.0009 9.33313C14.0004 9.1547 13.8741 9.0827 13.7188 9.17235Z" fill="#1B2A4F"/>
<path d="M13.8753 10.7132L13.8697 9.26368C13.8696 9.21051 13.8582 9.16689 13.8382 9.13408C13.9345 9.12993 14.0015 9.20333 14.0019 9.33316L14.0075 10.7827C14.008 10.9611 13.8825 11.1786 13.7272 11.2682C13.6182 11.3311 13.5235 11.3143 13.4766 11.237C13.5126 11.2355 13.5527 11.2231 13.595 11.1987C13.7503 11.1091 13.8758 10.8917 13.8753 10.7132Z" fill="#6BB5FB"/>
<path d="M12.5021 9.87938C12.3468 9.96904 12.2213 10.1864 12.2218 10.3649L12.2274 11.8144C12.2279 11.9929 12.3543 12.0649 12.5095 11.9752C12.6648 11.8856 12.7903 11.6682 12.7898 11.4897L12.7842 10.0402C12.7837 9.86173 12.6574 9.78973 12.5021 9.87938Z" fill="#1B2A4F"/>
<path d="M12.6586 11.4203L12.653 9.97071C12.6529 9.91754 12.6415 9.87392 12.6216 9.84111C12.7178 9.83696 12.7849 9.91037 12.7852 10.0402L12.7908 11.4898C12.7913 11.6682 12.6658 11.8856 12.5105 11.9752C12.4015 12.0382 12.3068 12.0214 12.2599 11.9441C12.2959 11.9425 12.336 11.9302 12.3783 11.9058C12.5336 11.8161 12.6592 11.5987 12.6586 11.4203Z" fill="#6BB5FB"/>
<path d="M11.2854 10.5865C11.1301 10.6762 11.0046 10.8936 11.0051 11.072L11.0107 12.5216C11.0112 12.7 11.1376 12.772 11.2929 12.6824C11.4481 12.5927 11.5737 12.3753 11.5732 12.1969L11.5676 10.7473C11.567 10.5689 11.4407 10.4969 11.2854 10.5865Z" fill="#1B2A4F"/>
<path d="M11.442 12.1274L11.4364 10.6779C11.4362 10.6247 11.4248 10.5811 11.4049 10.5483C11.5012 10.5441 11.5682 10.6175 11.5686 10.7473L11.5742 12.1969C11.5747 12.3753 11.4492 12.5927 11.2939 12.6824C11.1849 12.7453 11.0902 12.7285 11.0432 12.6512C11.0793 12.6497 11.1194 12.6373 11.1617 12.6129C11.317 12.5233 11.4425 12.3059 11.442 12.1274Z" fill="#6BB5FB"/>
<path d="M7.67881 14.1256L1.81699 10.7411C1.69558 10.671 1.54382 10.7586 1.54382 10.8988V12.0969C1.54382 12.227 1.61325 12.3473 1.72594 12.4123L7.58775 15.7966C7.70916 15.8667 7.86091 15.7791 7.86091 15.6389V14.441C7.86091 14.3109 7.79149 14.1906 7.67881 14.1256Z" fill="#3955D1"/>
<path d="M10.0686 14.4267C9.91335 14.5164 9.78783 14.7338 9.78833 14.9122L9.79394 16.3618C9.79444 16.5402 9.92079 16.6122 10.0761 16.5226C10.2313 16.4329 10.3569 16.2155 10.3564 16.0371L10.3508 14.5875C10.3502 14.4091 10.2239 14.3371 10.0686 14.4267Z" fill="#1B2A4F"/>
<path d="M10.2252 15.9676L10.2196 14.5181C10.2194 14.4649 10.208 14.4213 10.1881 14.3885C10.2844 14.3843 10.3514 14.4577 10.3518 14.5876L10.3574 16.0371C10.3579 16.2156 10.2324 16.433 10.0771 16.5226C9.96806 16.5855 9.87338 16.5687 9.82642 16.4914C9.86246 16.4899 9.90258 16.4775 9.94486 16.4531C10.1002 16.3635 10.2257 16.1461 10.2252 15.9676Z" fill="#6BB5FB"/>
<path d="M14.9356 11.5985C14.7803 11.6882 14.6548 11.9056 14.6553 12.084L14.6609 13.5335C14.6614 13.712 14.7877 13.784 14.943 13.6943C15.0983 13.6047 15.2238 13.3873 15.2233 13.2088L15.2177 11.7593C15.2172 11.5808 15.0909 11.5088 14.9356 11.5985Z" fill="#1B2A4F"/>
<path d="M15.0921 13.1394L15.0865 11.6898C15.0863 11.6367 15.075 11.593 15.055 11.5602C15.1513 11.5561 15.2183 11.6295 15.2187 11.7593L15.2243 13.2089C15.2248 13.3873 15.0993 13.6047 14.944 13.6944C14.835 13.7573 14.7403 13.7405 14.6934 13.6632C14.7294 13.6616 14.7695 13.6493 14.8118 13.6249C14.9671 13.5352 15.0926 13.3178 15.0921 13.1394Z" fill="#6BB5FB"/>
<path d="M13.7188 12.3055C13.5635 12.3952 13.438 12.6126 13.4385 12.791L13.4441 14.2406C13.4446 14.419 13.5709 14.491 13.7262 14.4014C13.8815 14.3117 14.007 14.0943 14.0065 13.9159L14.0009 12.4663C14.0004 12.2879 13.8741 12.2159 13.7188 12.3055Z" fill="#1B2A4F"/>
<path d="M13.8753 13.8464L13.8697 12.3969C13.8696 12.3437 13.8582 12.3001 13.8382 12.2673C13.9345 12.2631 14.0015 12.3365 14.0019 12.4663L14.0075 13.9159C14.008 14.0943 13.8825 14.3117 13.7272 14.4014C13.6182 14.4643 13.5235 14.4475 13.4766 14.3702C13.5126 14.3687 13.5527 14.3563 13.595 14.3319C13.7503 14.2423 13.8758 14.0248 13.8753 13.8464Z" fill="#6BB5FB"/>
<path d="M12.5021 13.0126C12.3468 13.1022 12.2213 13.3196 12.2218 13.498L12.2274 14.9476C12.2279 15.126 12.3543 15.198 12.5095 15.1084C12.6648 15.0187 12.7903 14.8013 12.7898 14.6229L12.7842 13.1733C12.7837 12.9949 12.6574 12.9229 12.5021 13.0126Z" fill="#1B2A4F"/>
<path d="M12.6586 14.5534L12.653 13.1039C12.6529 13.0507 12.6415 13.0071 12.6216 12.9743C12.7178 12.9701 12.7849 13.0435 12.7852 13.1734L12.7908 14.6229C12.7913 14.8014 12.6658 15.0188 12.5105 15.1084C12.4015 15.1714 12.3068 15.1545 12.2599 15.0772C12.2959 15.0757 12.336 15.0634 12.3783 15.0389C12.5336 14.9493 12.6592 14.7319 12.6586 14.5534Z" fill="#6BB5FB"/>
<path d="M11.2854 13.7197C11.1301 13.8094 11.0046 14.0268 11.0051 14.2052L11.0107 15.6548C11.0112 15.8332 11.1376 15.9052 11.2929 15.8155C11.4481 15.7259 11.5737 15.5085 11.5732 15.33L11.5676 13.8805C11.567 13.7021 11.4407 13.6301 11.2854 13.7197Z" fill="#1B2A4F"/>
<path d="M11.442 15.2606L11.4364 13.811C11.4362 13.7579 11.4248 13.7142 11.4049 13.6814C11.5012 13.6773 11.5682 13.7507 11.5686 13.8805L11.5742 15.3301C11.5747 15.5085 11.4492 15.7259 11.2939 15.8156C11.1849 15.8785 11.0902 15.8617 11.0432 15.7844C11.0793 15.7828 11.1194 15.7705 11.1617 15.7461C11.317 15.6564 11.4425 15.439 11.442 15.2606Z" fill="#6BB5FB"/>
<path d="M7.67881 17.2586L1.81699 13.8742C1.69558 13.8041 1.54382 13.8917 1.54382 14.0319V15.23C1.54382 15.3601 1.61325 15.4803 1.72594 15.5454L7.58775 18.9297C7.70916 18.9998 7.86091 18.9121 7.86091 18.7719V17.574C7.86091 17.4439 7.79149 17.3237 7.67881 17.2586Z" fill="#3955D1"/>
<path d="M10.0686 17.5598C9.91335 17.6495 9.78783 17.8669 9.78833 18.0453L9.79394 19.4949C9.79444 19.6733 9.92079 19.7453 10.0761 19.6556C10.2313 19.566 10.3569 19.3486 10.3564 19.1701L10.3508 17.7206C10.3502 17.5421 10.2239 17.4701 10.0686 17.5598Z" fill="#1B2A4F"/>
<path d="M10.2252 19.1007L10.2196 17.6511C10.2194 17.598 10.208 17.5543 10.1881 17.5215C10.2844 17.5174 10.3514 17.5908 10.3518 17.7206L10.3574 19.1702C10.3579 19.3486 10.2324 19.566 10.0771 19.6557C9.96806 19.7186 9.87338 19.7018 9.82642 19.6245C9.86246 19.6229 9.90258 19.6106 9.94486 19.5862C10.1002 19.4965 10.2257 19.2791 10.2252 19.1007Z" fill="#6BB5FB"/>
<path d="M14.9356 14.7316C14.7803 14.8212 14.6548 15.0386 14.6553 15.217L14.6609 16.6666C14.6614 16.845 14.7877 16.917 14.943 16.8274C15.0983 16.7377 15.2238 16.5203 15.2233 16.3419L15.2177 14.8923C15.2172 14.7139 15.0909 14.6419 14.9356 14.7316Z" fill="#1B2A4F"/>
<path d="M15.0921 16.2724L15.0865 14.8229C15.0863 14.7697 15.075 14.7261 15.055 14.6933C15.1513 14.6891 15.2183 14.7625 15.2187 14.8924L15.2243 16.3419C15.2248 16.5204 15.0993 16.7378 14.944 16.8274C14.835 16.8903 14.7403 16.8735 14.6934 16.7962C14.7294 16.7947 14.7695 16.7823 14.8118 16.7579C14.9671 16.6683 15.0926 16.4509 15.0921 16.2724Z" fill="#6BB5FB"/>
<path d="M13.7188 15.4386C13.5635 15.5282 13.438 15.7456 13.4385 15.9241L13.4441 17.3736C13.4446 17.5521 13.5709 17.6241 13.7262 17.5344C13.8815 17.4448 14.007 17.2274 14.0065 17.0489L14.0009 15.5994C14.0004 15.4209 13.8741 15.3489 13.7188 15.4386Z" fill="#1B2A4F"/>
<path d="M13.8753 16.9795L13.8697 15.5299C13.8696 15.4767 13.8582 15.4331 13.8382 15.4003C13.9345 15.3962 14.0015 15.4696 14.0019 15.5994L14.0075 17.049C14.008 17.2274 13.8825 17.4448 13.7272 17.5344C13.6182 17.5974 13.5235 17.5806 13.4766 17.5033C13.5126 17.5017 13.5527 17.4894 13.595 17.465C13.7503 17.3753 13.8758 17.1579 13.8753 16.9795Z" fill="#6BB5FB"/>
<path d="M12.5021 16.1456C12.3468 16.2353 12.2213 16.4527 12.2218 16.6311L12.2274 18.0807C12.2279 18.2591 12.3543 18.3311 12.5095 18.2414C12.6648 18.1518 12.7903 17.9344 12.7898 17.756L12.7842 16.3064C12.7837 16.128 12.6574 16.056 12.5021 16.1456Z" fill="#1B2A4F"/>
<path d="M12.6586 17.6865L12.653 16.2369C12.6529 16.1838 12.6415 16.1402 12.6216 16.1073C12.7178 16.1032 12.7849 16.1766 12.7852 16.3064L12.7908 17.756C12.7913 17.9344 12.6658 18.1518 12.5105 18.2415C12.4015 18.3044 12.3068 18.2876 12.2599 18.2103C12.2959 18.2088 12.336 18.1964 12.3783 18.172C12.5336 18.0823 12.6592 17.8649 12.6586 17.6865Z" fill="#6BB5FB"/>
<path d="M11.2854 16.8528C11.1301 16.9424 11.0046 17.1598 11.0051 17.3383L11.0107 18.7878C11.0112 18.9663 11.1376 19.0383 11.2929 18.9486C11.4481 18.8589 11.5737 18.6415 11.5732 18.4631L11.5676 17.0135C11.567 16.8351 11.4407 16.7631 11.2854 16.8528Z" fill="#1B2A4F"/>
<path d="M11.442 18.3937L11.4364 16.9441C11.4362 16.8909 11.4248 16.8473 11.4049 16.8145C11.5012 16.8104 11.5682 16.8838 11.5686 17.0136L11.5742 18.4631C11.5747 18.6416 11.4492 18.859 11.2939 18.9486C11.1849 19.0116 11.0902 18.9948 11.0432 18.9175C11.0793 18.9159 11.1194 18.9036 11.1617 18.8791C11.317 18.7895 11.4425 18.5721 11.442 18.3937Z" fill="#6BB5FB"/>
<path d="M7.67881 20.3917L1.81699 17.0072C1.69558 16.9371 1.54382 17.0247 1.54382 17.1649V18.363C1.54382 18.4932 1.61325 18.6134 1.72594 18.6785L7.58775 22.0627C7.70916 22.1328 7.86091 22.0452 7.86091 21.905V20.7071C7.86091 20.577 7.79149 20.4567 7.67881 20.3917Z" fill="#3955D1"/>
<path d="M10.0686 20.6929C9.91335 20.7825 9.78783 20.9999 9.78833 21.1783L9.79394 22.6279C9.79444 22.8063 9.92079 22.8783 10.0761 22.7887C10.2313 22.699 10.3569 22.4816 10.3564 22.3032L10.3508 20.8536C10.3502 20.6752 10.2239 20.6032 10.0686 20.6929Z" fill="#1B2A4F"/>
<path d="M10.2252 22.2337L10.2196 20.7842C10.2194 20.731 10.208 20.6874 10.1881 20.6546C10.2844 20.6504 10.3514 20.7238 10.3518 20.8537L10.3574 22.3032C10.3579 22.4817 10.2324 22.6991 10.0771 22.7887C9.96806 22.8517 9.87338 22.8348 9.82642 22.7575C9.86246 22.756 9.90258 22.7437 9.94486 22.7192C10.1002 22.6296 10.2257 22.4122 10.2252 22.2337Z" fill="#6BB5FB"/>
<path d="M14.9356 17.8646C14.7803 17.9543 14.6548 18.1717 14.6553 18.3501L14.6609 19.7997C14.6614 19.9781 14.7877 20.0501 14.943 19.9604C15.0983 19.8708 15.2238 19.6534 15.2233 19.4749L15.2177 18.0254C15.2172 17.847 15.0909 17.775 14.9356 17.8646Z" fill="#1B2A4F"/>
<path d="M15.0921 19.4055L15.0865 17.9559C15.0863 17.9028 15.075 17.8591 15.055 17.8263C15.1513 17.8222 15.2183 17.8956 15.2187 18.0254L15.2243 19.475C15.2248 19.6534 15.0993 19.8708 14.944 19.9605C14.835 20.0234 14.7403 20.0066 14.6934 19.9293C14.7294 19.9277 14.7695 19.9154 14.8118 19.891C14.9671 19.8013 15.0926 19.5839 15.0921 19.4055Z" fill="#6BB5FB"/>
<path d="M13.7188 18.5716C13.5635 18.6613 13.438 18.8787 13.4385 19.0571L13.4441 20.5067C13.4446 20.6851 13.5709 20.7571 13.7262 20.6675C13.8815 20.5778 14.007 20.3604 14.0065 20.182L14.0009 18.7324C14.0004 18.554 13.8741 18.482 13.7188 18.5716Z" fill="#1B2A4F"/>
<path d="M13.8753 20.1125L13.8697 18.663C13.8696 18.6098 13.8582 18.5662 13.8382 18.5334C13.9345 18.5292 14.0015 18.6026 14.0019 18.7325L14.0075 20.182C14.008 20.3605 13.8825 20.5779 13.7272 20.6675C13.6182 20.7305 13.5235 20.7136 13.4766 20.6363C13.5126 20.6348 13.5527 20.6224 13.595 20.598C13.7503 20.5084 13.8758 20.291 13.8753 20.1125Z" fill="#6BB5FB"/>
<path d="M12.5021 19.2788C12.3468 19.3684 12.2213 19.5859 12.2218 19.7643L12.2274 21.2138C12.2279 21.3923 12.3543 21.4643 12.5095 21.3746C12.6648 21.285 12.7903 21.0676 12.7898 20.8891L12.7842 19.4396C12.7837 19.2611 12.6574 19.1891 12.5021 19.2788Z" fill="#1B2A4F"/>
<path d="M12.6586 20.8197L12.653 19.3701C12.6529 19.317 12.6415 19.2733 12.6216 19.2405C12.7178 19.2364 12.7849 19.3098 12.7852 19.4396L12.7908 20.8892C12.7913 21.0676 12.6658 21.285 12.5105 21.3747C12.4015 21.4376 12.3068 21.4208 12.2599 21.3435C12.2959 21.3419 12.336 21.3296 12.3783 21.3052C12.5336 21.2155 12.6592 20.9981 12.6586 20.8197Z" fill="#6BB5FB"/>
<path d="M11.2854 19.9858C11.1301 20.0755 11.0046 20.2929 11.0051 20.4713L11.0107 21.9209C11.0112 22.0993 11.1376 22.1713 11.2929 22.0817C11.4481 21.992 11.5737 21.7746 11.5732 21.5962L11.5676 20.1466C11.567 19.9682 11.4407 19.8962 11.2854 19.9858Z" fill="#1B2A4F"/>
<path d="M11.442 21.5267L11.4364 20.0771C11.4362 20.024 11.4248 19.9804 11.4049 19.9476C11.5012 19.9434 11.5682 20.0168 11.5686 20.1466L11.5742 21.5962C11.5747 21.7746 11.4492 21.992 11.2939 22.0817C11.1849 22.1446 11.0902 22.1278 11.0432 22.0505C11.0793 22.049 11.1194 22.0366 11.1617 22.0122C11.317 21.9225 11.4425 21.7051 11.442 21.5267Z" fill="#6BB5FB"/>
</svg>
