<svg width="206" height="206" viewBox="0 0 206 206" fill="none" xmlns="http://www.w3.org/2000/svg">
<path d="M173.812 12.875H32.1875C27.0655 12.875 22.1533 14.9097 18.5315 18.5315C14.9097 22.1533 12.875 27.0655 12.875 32.1875V57.9375C12.875 59.6448 13.5532 61.2822 14.7605 62.4895C15.9678 63.6968 17.6052 64.375 19.3125 64.375H186.688C188.395 64.375 190.032 63.6968 191.24 62.4895C192.447 61.2822 193.125 59.6448 193.125 57.9375V32.1875C193.125 27.0655 191.09 22.1533 187.469 18.5315C183.847 14.9097 178.934 12.875 173.812 12.875Z" fill="#341F97"/>
<path d="M186.688 77.25H19.3125C15.7572 77.25 12.875 80.1322 12.875 83.6875V122.312C12.875 125.868 15.7572 128.75 19.3125 128.75H186.688C190.243 128.75 193.125 125.868 193.125 122.312V83.6875C193.125 80.1322 190.243 77.25 186.688 77.25Z" fill="#341F97"/>
<path d="M186.688 141.625H19.3125C17.6052 141.625 15.9678 142.303 14.7605 143.51C13.5532 144.718 12.875 146.355 12.875 148.062V173.812C12.875 178.934 14.9097 183.847 18.5315 187.469C22.1533 191.09 27.0655 193.125 32.1875 193.125H173.812C178.934 193.125 183.847 191.09 187.469 187.469C191.09 183.847 193.125 178.934 193.125 173.812V148.062C193.125 146.355 192.447 144.718 191.24 143.51C190.032 142.303 188.395 141.625 186.688 141.625Z" fill="#341F97"/>
<path d="M135.188 109.438H45.0625C43.3552 109.438 41.7178 108.759 40.5105 107.552C39.3032 106.345 38.625 104.707 38.625 103C38.625 101.293 39.3032 99.6553 40.5105 98.448C41.7178 97.2407 43.3552 96.5625 45.0625 96.5625H135.188C136.895 96.5625 138.532 97.2407 139.74 98.448C140.947 99.6553 141.625 101.293 141.625 103C141.625 104.707 140.947 106.345 139.74 107.552C138.532 108.759 136.895 109.438 135.188 109.438Z" fill="#4466FB"/>
<path d="M135.188 45.0625H45.0625C43.3552 45.0625 41.7178 44.3843 40.5105 43.177C39.3032 41.9697 38.625 40.3323 38.625 38.625C38.625 36.9177 39.3032 35.2803 40.5105 34.073C41.7178 32.8657 43.3552 32.1875 45.0625 32.1875H135.188C136.895 32.1875 138.532 32.8657 139.74 34.073C140.947 35.2803 141.625 36.9177 141.625 38.625C141.625 40.3323 140.947 41.9697 139.74 43.177C138.532 44.3843 136.895 45.0625 135.188 45.0625Z" fill="#4466FB"/>
<path d="M135.188 173.812H45.0625C43.3552 173.812 41.7178 173.134 40.5105 171.927C39.3032 170.72 38.625 169.082 38.625 167.375C38.625 165.668 39.3032 164.03 40.5105 162.823C41.7178 161.616 43.3552 160.938 45.0625 160.938H135.188C136.895 160.938 138.532 161.616 139.74 162.823C140.947 164.03 141.625 165.668 141.625 167.375C141.625 169.082 140.947 170.72 139.74 171.927C138.532 173.134 136.895 173.812 135.188 173.812Z" fill="#4466FB"/>
<path d="M160.938 45.0625C164.493 45.0625 167.375 42.1803 167.375 38.625C167.375 35.0697 164.493 32.1875 160.938 32.1875C157.382 32.1875 154.5 35.0697 154.5 38.625C154.5 42.1803 157.382 45.0625 160.938 45.0625Z" fill="#4466FB"/>
<path d="M160.938 109.438C164.493 109.438 167.375 106.555 167.375 103C167.375 99.4447 164.493 96.5625 160.938 96.5625C157.382 96.5625 154.5 99.4447 154.5 103C154.5 106.555 157.382 109.438 160.938 109.438Z" fill="#4466FB"/>
<path d="M160.938 173.812C164.493 173.812 167.375 170.93 167.375 167.375C167.375 163.82 164.493 160.938 160.938 160.938C157.382 160.938 154.5 163.82 154.5 167.375C154.5 170.93 157.382 173.812 160.938 173.812Z" fill="#4466FB"/>
</svg>
