<svg width="34" height="41" viewBox="0 0 34 41" fill="none" xmlns="http://www.w3.org/2000/svg">
<path d="M29.3221 14.0118H26.8824V9.46797C26.8824 4.34063 22.6189 0.0782041 17.2714 0.000517194C15.982 -0.0124727 14.7026 0.219347 13.507 0.682617C12.3114 1.14589 11.2232 1.83145 10.3052 2.69979C9.38722 3.56813 8.65752 4.60208 8.15817 5.74206C7.65882 6.88204 7.39969 8.1055 7.39572 9.34194V14.0118H4.96147C3.88568 14.015 2.85491 14.4261 2.09421 15.1555C1.33352 15.8849 0.904691 16.8733 0.901367 17.9048V36.5876C0.904691 37.6191 1.33352 38.6075 2.09421 39.3368C2.85491 40.0662 3.88568 40.4774 4.96147 40.4806H29.3221C30.3977 40.4774 31.4283 40.0662 32.1887 39.3367C32.9491 38.6073 33.3775 37.6189 33.3804 36.5876V17.9048C33.3775 16.8734 32.9491 15.8851 32.1887 15.1556C31.4283 14.4262 30.3977 14.015 29.3221 14.0118ZM18.5642 26.1568V32.8483C18.5665 33.2026 18.4283 33.5445 18.1776 33.8048C17.9269 34.0651 17.5823 34.2243 17.2138 34.2501C17.0214 34.2587 16.8292 34.2299 16.6487 34.1652C16.4683 34.1006 16.3034 34.0015 16.164 33.874C16.0247 33.7465 15.9137 33.5933 15.8379 33.4235C15.7621 33.2537 15.723 33.0709 15.723 32.8863V26.1534C15.0643 25.8454 14.534 25.3324 14.2184 24.6982C13.9029 24.064 13.8209 23.346 13.9857 22.6614C14.1506 21.9767 14.5525 21.3659 15.1261 20.9284C15.6996 20.491 16.4107 20.2529 17.1436 20.2529C17.8764 20.2529 18.5876 20.491 19.1611 20.9284C19.7346 21.3659 20.1366 21.9767 20.3014 22.6614C20.4662 23.346 20.3842 24.064 20.0687 24.6982C19.7532 25.3324 19.2228 25.8454 18.5642 26.1534V26.1568ZM24.0448 14.0118H10.2369V9.34194C10.2369 7.58695 10.964 5.90384 12.2582 4.66287C13.5525 3.42191 15.3078 2.72474 17.1382 2.72474C18.9685 2.72474 20.7239 3.42191 22.0181 4.66287C23.3123 5.90384 24.0394 7.58695 24.0394 9.34194L24.0448 14.0118Z" fill="#2BC077"/>
</svg>
