<svg viewBox="0 0 32 32" fill="none" xmlns="http://www.w3.org/2000/svg">
<g clip-path="url(#clip0)">
<path d="M13.2003 0.1907C7.43177 1.23479 2.63702 5.39005 0.827086 10.9058C0.234358 12.7409 0.128513 13.4369 0.128513 15.852C0.128513 17.5922 0.170851 18.2566 0.319033 18.9632C0.594229 20.2393 1.1552 21.8423 1.69501 22.9286L2.16072 23.8672L1.04936 27.9065C0.446046 30.1212 -0.030253 31.9668 0.00150027 31.9985C0.0226691 32.0301 1.9067 31.5661 4.18235 30.9755L8.31028 29.8998L9.40048 30.3849C11.8243 31.4395 13.4014 31.7665 16.111 31.7665C18.7995 31.7559 20.5141 31.3762 22.9274 30.2372C32.1147 25.9132 34.8984 14.0697 28.6112 6.05447C26.3673 3.19641 23.2132 1.20315 19.5509 0.327804C17.9845 -0.0413175 14.8409 -0.115144 13.2003 0.1907ZM18.2385 2.77456C23.1391 3.61826 27.2035 7.09856 28.6959 11.7389C30.1989 16.411 29.0769 21.4205 25.7323 24.9641C23.8165 26.989 21.255 28.4022 18.5243 28.9506C17.4023 29.1721 14.7562 29.1931 13.7401 28.9928C12.3959 28.7291 11.2104 28.3283 9.96145 27.7061L8.68073 27.0628L6.21456 27.7061C4.85975 28.0647 3.73781 28.3389 3.71664 28.3283C3.70605 28.3073 3.99183 27.2104 4.36229 25.8816L5.02911 23.4665L4.51047 22.57C3.84365 21.3994 3.3991 20.3342 3.07099 19.0792C2.71112 17.7187 2.61586 15.1665 2.86988 13.7322C3.36735 10.8741 4.57398 8.5645 6.62736 6.51851C8.67015 4.49361 10.9881 3.27023 13.7083 2.7851C14.8197 2.58472 17.0848 2.57417 18.2385 2.77456Z" fill="#25D366"/>
<path d="M9.72852 8.7015C9.27339 8.92298 8.49014 9.91433 8.20436 10.6315C7.86566 11.4857 7.87625 12.9411 8.21495 13.9852C8.69125 15.4406 10.1624 17.5182 11.983 19.3322C13.9093 21.2411 15.497 22.2324 18.0584 23.0867C19.3074 23.498 19.4344 23.5191 20.3976 23.4769C21.2973 23.4453 21.5089 23.3925 22.144 23.0867C23.0013 22.6648 23.6999 22.0004 23.8904 21.4309C23.9751 21.2095 24.0386 20.7138 24.0386 20.3341L24.0492 19.6486L22.8849 19.0474C21.1808 18.1616 20.2176 17.7713 20.006 17.8873C19.9213 17.9401 19.4979 18.4041 19.0851 18.9209C18.5241 19.617 18.2489 19.8701 18.0373 19.8912C17.6774 19.9333 16.0368 19.1213 15.1054 18.4358C14.7137 18.1405 14.0787 17.5815 13.7082 17.1913C13.0732 16.5269 12.1523 15.2402 12.0041 14.8289C11.9618 14.7129 12.0888 14.4598 12.3852 14.1012C12.9779 13.3841 13.306 12.8462 13.306 12.572C13.306 12.2556 11.9512 9.03899 11.6866 8.75424C11.5067 8.5644 11.3585 8.52222 10.7763 8.52222C10.353 8.52222 9.94021 8.59604 9.72852 8.7015Z" fill="#25D366"/>
</g>
<defs>
<clipPath id="clip0">
<rect width="32" height="32" fill="white"/>
</clipPath>
</defs>
</svg>
